<svg width="102" height="98" viewBox="0 0 102 98" fill="none" xmlns="http://www.w3.org/2000/svg">
<ellipse cx="51.1679" cy="49.3982" rx="50.8321" ry="48.6018" fill="#F45C5C"/>
<path d="M31.5128 70.297V31.4156C31.5128 30.079 32.0935 28.9349 33.2549 27.9831C34.4162 27.0313 35.8124 26.5554 37.4432 26.5554H55.2345C56.8653 26.5554 58.2614 27.0313 59.4228 27.9831C60.5842 28.9349 61.1649 30.079 61.1649 31.4156V48.4262H64.1301C65.7609 48.4262 67.1571 48.9021 68.3184 49.8539C69.4798 50.8057 70.0605 51.9498 70.0605 53.2864V64.2218C70.0605 64.9103 70.3447 65.4875 70.913 65.9532C71.4813 66.419 72.1856 66.6519 73.0257 66.6519C73.8658 66.6519 74.5701 66.419 75.1384 65.9532C75.7067 65.4875 75.9909 64.9103 75.9909 64.2218V46.7252C75.5461 46.9277 75.0766 47.0593 74.5824 47.12C74.0882 47.1808 73.5693 47.2112 73.0257 47.2112C70.9501 47.2112 69.1956 46.6239 67.7625 45.4494C66.3293 44.2748 65.6127 42.837 65.6127 41.1359C65.6127 39.8399 66.0451 38.6755 66.91 37.6427C67.7748 36.6099 68.9238 35.8708 70.357 35.4252L64.1301 30.3221L67.2435 27.7705L78.2148 36.5188C78.9561 37.1263 79.5121 37.8351 79.8827 38.6451C80.2534 39.4551 80.4387 40.2854 80.4387 41.1359V64.2218C80.4387 65.9228 79.7221 67.3606 78.2889 68.5352C76.8558 69.7097 75.1013 70.297 73.0257 70.297C70.9501 70.297 69.1956 69.7097 67.7625 68.5352C66.3293 67.3606 65.6127 65.9228 65.6127 64.2218V52.0713H61.1649V70.297H31.5128ZM37.4432 43.566H55.2345V31.4156H37.4432V43.566ZM73.0257 43.566C73.8658 43.566 74.5701 43.3332 75.1384 42.8674C75.7067 42.4016 75.9909 41.8245 75.9909 41.1359C75.9909 40.4474 75.7067 39.8703 75.1384 39.4045C74.5701 38.9387 73.8658 38.7059 73.0257 38.7059C72.1856 38.7059 71.4813 38.9387 70.913 39.4045C70.3447 39.8703 70.0605 40.4474 70.0605 41.1359C70.0605 41.8245 70.3447 42.4016 70.913 42.8674C71.4813 43.3332 72.1856 43.566 73.0257 43.566Z" fill="#1C1B1F"/>
</svg>
