<svg width="85" height="83" viewBox="0 0 85 83" fill="none" xmlns="http://www.w3.org/2000/svg">
<ellipse cx="42.6621" cy="41.79" rx="42.3379" ry="41.21" fill="#FFD665"/>
<g clip-path="url(#clip0_4_95)">
<path d="M71.4943 22.5862H70.6899V18.6712C70.6899 18.239 70.3295 17.8882 69.8855 17.8882C69.4415 17.8882 69.0811 18.239 69.0811 18.6712V22.5862H64.2546V18.6712C64.2546 18.239 63.8942 17.8882 63.4502 17.8882C63.0062 17.8882 62.6456 18.239 62.6456 18.6712V22.5862H61.8412C61.3972 22.5862 61.0368 22.937 61.0368 23.3691V26.5011C61.0368 29.2572 63.1388 31.538 65.8633 31.9194V56.2547C65.8633 57.5498 64.7806 58.6037 63.4501 58.6037C62.1196 58.6037 61.0368 57.5498 61.0368 56.2547V37.463C61.0368 35.3043 59.2325 33.548 57.0147 33.548H56.2103V21.8031C56.2102 19.6445 54.4059 17.8882 52.1882 17.8882H28.0556C25.8377 17.8882 24.0334 19.6445 24.0334 21.8032V64.0847C24.0334 64.5168 24.3938 64.8676 24.8378 64.8676H55.4058C55.8498 64.8676 56.2102 64.5168 56.2102 64.0847V37.4144C56.2102 36.9814 55.8498 36.6306 55.4058 36.6306C54.9618 36.6306 54.6014 36.9814 54.6014 37.4144V63.3016H25.6423V21.8032C25.6423 20.5082 26.7251 19.4543 28.0556 19.4543H52.1882C53.5187 19.4543 54.6014 20.5082 54.6014 21.8032V34.331C54.6014 34.7632 54.9618 35.114 55.4058 35.114H57.0147C58.3452 35.114 59.428 36.1679 59.428 37.463V56.2547C59.428 58.4134 61.2322 60.1697 63.4501 60.1697C65.6678 60.1697 67.4722 58.4135 67.4722 56.2547V31.9194C70.1968 31.538 72.2987 29.2573 72.2987 26.5011V23.3691C72.2986 22.937 71.9383 22.5862 71.4943 22.5862ZM70.6898 26.5012C70.6898 28.6598 68.8855 30.4161 66.6676 30.4161C64.4499 30.4161 62.6455 28.6599 62.6455 26.5012V24.1522H70.6897V26.5012H70.6898Z" fill="black"/>
<path d="M33.5578 29.738C33.1716 29.5203 32.681 29.6502 32.4589 30.0245C32.2369 30.3995 32.3688 30.8779 32.7533 31.0941L33.4499 31.4856C33.577 31.5569 33.7154 31.5905 33.8513 31.5905C34.1297 31.5905 34.4 31.4504 34.5487 31.199C34.7707 30.824 34.6388 30.3456 34.2543 30.1295L33.5578 29.738Z" fill="black"/>
<path d="M35.6982 26.8722C35.3137 27.0876 35.181 27.5667 35.403 27.941L35.8052 28.6198C35.9541 28.872 36.2251 29.0121 36.5035 29.0121C36.6394 29.0121 36.7778 28.9784 36.9041 28.9072C37.2894 28.6911 37.4214 28.2127 37.1994 27.8384L36.7971 27.1588C36.5743 26.7838 36.0819 26.6554 35.6982 26.8722Z" fill="black"/>
<path d="M51.3836 34.331V33.5481C51.3836 27.5034 46.3319 22.5862 40.1217 22.5862C33.9115 22.5862 28.8599 27.5033 28.8599 33.5481V34.331C28.8599 34.7632 29.2202 35.114 29.6643 35.114L40.1217 35.1155C40.3348 35.1155 40.5399 35.0325 40.6904 34.8862C40.8416 34.739 40.9261 34.54 40.9261 34.3326V26.5019C40.9261 26.0697 40.5665 25.7189 40.1217 25.7189C39.6777 25.7189 39.3173 26.0697 39.3173 26.5019V33.5481H30.4687C30.4687 28.367 34.7989 24.1522 40.1218 24.1522C45.4446 24.1522 49.7748 28.367 49.7748 33.5481H43.3394C42.8954 33.5481 42.535 33.8989 42.535 34.331C42.535 34.7632 42.8954 35.114 43.3394 35.114H50.5792C51.0232 35.114 51.3836 34.7632 51.3836 34.331Z" fill="black"/>
<path d="M43.7402 29.013C44.0186 29.013 44.2889 28.8729 44.4376 28.6215L44.8406 27.9426C45.0626 27.5684 44.9315 27.0892 44.5462 26.873C44.1617 26.6561 43.6694 26.7846 43.4473 27.1596L43.0443 27.8384C42.8223 28.2127 42.9542 28.6918 43.3387 28.908C43.465 28.9793 43.6034 29.013 43.7402 29.013Z" fill="black"/>
<path d="M37.3441 58.5192C37.4599 58.5763 37.5846 58.6038 37.7085 58.6038C37.941 58.6038 38.1695 58.5051 38.3264 58.3219L46.3705 48.926C46.5708 48.6927 46.6135 48.3678 46.4816 48.093C46.3488 47.8182 46.0649 47.642 45.7528 47.642H41.9077L43.3243 40.7486C43.3983 40.3869 43.2027 40.0235 42.8553 39.8771C42.507 39.7299 42.1008 39.8403 41.8804 40.1401L33.8362 51.102C33.6616 51.3409 33.6375 51.654 33.7759 51.9155C33.9134 52.1755 34.1893 52.3399 34.491 52.3399H38.287L36.9284 57.6306C36.8373 57.9851 37.0094 58.3539 37.3441 58.5192ZM36.0538 50.7738L41.0106 44.019L40.1378 48.2714C40.0895 48.5016 40.1515 48.7397 40.3043 48.9213C40.4571 49.103 40.6848 49.2079 40.9261 49.2079H44.0351L39.3413 54.6896L40.0975 51.7472C40.1578 51.5131 40.1039 51.2648 39.9511 51.0753C39.799 50.885 39.5649 50.7739 39.3172 50.7739H36.0538V50.7738Z" fill="black"/>
<path d="M46.3914 31.5921C46.5274 31.5921 46.6658 31.5584 46.7921 31.4872L47.4895 31.0957C47.8747 30.8796 48.0067 30.4012 47.7847 30.0262C47.5627 29.6512 47.0696 29.5227 46.6859 29.7396L45.9885 30.1311C45.604 30.3472 45.4713 30.8256 45.6933 31.1999C45.842 31.452 46.1132 31.5921 46.3914 31.5921Z" fill="black"/>
</g>
<defs>
<clipPath id="clip0_4_95">
<rect width="48.2652" height="46.9794" fill="white" transform="translate(24.0334 17.8882)"/>
</clipPath>
</defs>
</svg>
